<?xml version="1.0" encoding="UTF-8"?>
<svg version="1.1" xmlns="http://www.w3.org/2000/svg" width="1920" height="1920">
<path d="M0 0 C633.6 0 1267.2 0 1920 0 C1920 633.6 1920 1267.2 1920 1920 C1286.4 1920 652.8 1920 0 1920 C0 1286.4 0 652.8 0 0 Z " fill="#020403" transform="translate(0,0)"/>
<path d="M0 0 C58.74 0 117.48 0 178 0 C178.04033135 92.48874593 178.04033135 92.48874593 178.04882812 131.08398438 C178.05078601 139.91821291 178.05280649 148.75244143 178.05493164 157.58666992 C178.05519539 158.69390213 178.05545914 159.80113433 178.05573088 160.94191903 C178.06008061 178.81915633 178.06796468 196.69639041 178.0771528 214.5736258 C178.08650312 232.91942037 178.09205854 251.26521327 178.09408849 269.61101013 C178.09546085 280.93203236 178.09979594 292.25304549 178.10791647 303.57406492 C178.11320091 311.33648107 178.11480041 319.09889253 178.11350138 326.86131036 C178.11286067 331.3402959 178.11384545 335.81926557 178.11920547 340.29824829 C178.12407951 344.40111527 178.12431235 348.50395572 178.12089889 352.60682393 C178.12047714 354.0888052 178.12173902 355.57078814 178.12488318 357.05276614 C178.13968271 364.46094033 177.96167291 371.65366825 177 379 C176.94805811 380.37577085 176.91110426 381.75225498 176.89453125 383.12890625 C176.72420563 394.23792198 175.14218087 404.92390608 173.0625 415.8125 C172.92921295 416.51335724 172.7959259 417.21421448 172.65859985 417.93630981 C170.45249851 429.43961273 170.45249851 429.43961273 168.95947266 434.58813477 C168.10775539 437.61682404 167.58385238 440.45880469 167.17578125 443.5703125 C166.04110218 450.67006684 163.69610059 457.15830504 161.1875 463.875 C160.54844727 465.62103516 160.54844727 465.62103516 159.89648438 467.40234375 C159.03605096 469.7532405 158.17122293 472.10253348 157.30200195 474.45019531 C155.98060376 478.05288229 154.70309221 481.66916744 153.4296875 485.2890625 C151.46624639 490.7949922 149.35368373 496.17788871 146.9375 501.5 C146.56101318 502.33112305 146.18452637 503.16224609 145.79663086 504.01855469 C138.4242171 519.98542781 129.66784447 535.31713534 120 550 C119.49855469 550.76441406 118.99710938 551.52882813 118.48046875 552.31640625 C112.31178316 561.66699292 105.9612719 570.65242601 98.5625 579.0703125 C96.04550391 581.94797571 93.64198657 584.89309783 91.25 587.875 C88.2234841 591.59745272 85.09089082 595.04191765 81.6328125 598.36328125 C79.3316676 600.66993128 77.29915323 603.17502817 75.26171875 605.71484375 C74.84535156 606.13894531 74.42898438 606.56304688 74 607 C73.34 607 72.68 607 72 607 C71.77957031 607.55558594 71.55914063 608.11117187 71.33203125 608.68359375 C68.25333956 614.03744763 62.6183416 617.9408057 58 622 C57.49533203 622.44794922 56.99066406 622.89589844 56.47070312 623.35742188 C29.8836865 646.86998717 -0.76160824 665.37285394 -33 680 C-33.74515869 680.34047363 -34.49031738 680.68094727 -35.25805664 681.03173828 C-47.28748027 686.46506088 -59.76228016 690.98930327 -72.25 695.25 C-72.88413818 695.47155762 -73.51827637 695.69311523 -74.17163086 695.92138672 C-87.81131886 700.47076808 -102.10550326 702.87211671 -116.25024414 705.23754883 C-118.96033762 705.69132391 -121.66867786 706.15464913 -124.37695312 706.61914062 C-126.13532221 706.91722438 -127.89378265 707.2147699 -129.65234375 707.51171875 C-130.84016701 707.71482918 -130.84016701 707.71482918 -132.05198669 707.92204285 C-141.8429844 709.54903299 -151.46843267 710.16997105 -161.390625 710.23828125 C-162.56102829 710.24802979 -163.73143158 710.25777832 -164.93730164 710.26782227 C-211.79102704 710.57803351 -211.79102704 710.57803351 -232.87890625 706.58984375 C-236.06857955 705.98703941 -239.26470472 705.45801277 -242.46875 704.9375 C-265.04552594 701.11095662 -287.76882042 694.86353921 -308.86743164 685.90161133 C-310.48641496 685.21713447 -312.11179822 684.54777164 -313.73999023 683.88549805 C-320.87241787 680.97101767 -327.80467131 677.77348234 -334.6875 674.3125 C-335.72769287 673.78994629 -336.76788574 673.26739258 -337.83959961 672.72900391 C-364.88756071 659.00180411 -390.23616463 641.59955277 -412.64453125 621.13671875 C-414.66993971 619.29940792 -416.72831255 617.51959312 -418.8125 615.75 C-427.50105334 608.17400532 -435.56051106 599.79498905 -443 591 C-444.28390625 589.54980469 -444.28390625 589.54980469 -445.59375 588.0703125 C-466.77184412 564.04899511 -483.95653128 536.73116153 -498 508 C-498.31291992 507.36827881 -498.62583984 506.73655762 -498.94824219 506.08569336 C-503.38799882 497.07641422 -506.96550593 487.9495731 -510.15771484 478.43530273 C-510.78660546 476.61698856 -511.44239697 474.80793737 -512.11181641 473.00415039 C-515.68512238 463.32545607 -518.50688147 453.53623179 -521.125 443.5625 C-521.34543976 442.72651276 -521.56587952 441.89052551 -521.79299927 441.02920532 C-524.76471556 429.68027779 -527.30289372 418.5022016 -528.39425659 406.79829407 C-528.74700246 403.20621963 -529.18259028 399.6526312 -529.74971008 396.08839417 C-532.90900493 375.38416413 -532.38940012 354.57005311 -532.30418181 333.68512034 C-532.28518924 328.23064878 -532.28364706 322.77617007 -532.28010559 317.32167053 C-532.27085048 307.03411778 -532.246327 296.74666281 -532.21605712 286.45915276 C-532.18230733 274.72966854 -532.16597582 263.0001792 -532.15097082 251.27065837 C-532.11977017 227.1803851 -532.0671395 203.09019807 -532 179 C-578.19794988 170.27579589 -621.28210329 171.44841655 -661.1186974 198.42552739 C-687.88885786 216.83471058 -711.82484325 238.94468711 -735.08634883 261.52077949 C-739.25415965 265.56076496 -743.46486484 269.5519903 -747.69683456 273.52462387 C-817.56292253 339.24467646 -852.72137443 400.05412971 -855.82745009 497.09763303 C-856.46364496 519.85614352 -855.83186765 542.5752524 -854.8125 565.3125 C-854.77248531 566.2164228 -854.73247061 567.1203456 -854.69124335 568.05166 C-854.08583206 581.60924349 -853.34238053 595.15608552 -852.48413086 608.69995117 C-852.43372483 609.50438538 -852.38331881 610.30881959 -852.33138533 611.1376306 C-850.21496183 644.59570611 -845.90382127 677.66543588 -842 711 C-900.41 711 -958.82 711 -1019 711 C-1015.99777344 691.04660156 -1012.99554687 671.09320312 -1009.90234375 650.53515625 C-1008.39483131 637.35549531 -1006.94648541 624.23044116 -1005.89868164 611.01538086 C-1005.79847239 609.76553971 -1005.79847239 609.76553971 -1005.69623871 608.49044923 C-1004.69511325 595.93040814 -1003.84244544 583.36381627 -1003.09891778 570.78599471 C-1002.99146772 568.97306134 -1002.88250487 567.16021698 -1002.77201575 565.34746629 C-997.68591935 481.88379425 -1000.57658054 404.37938358 -1057.84995109 338.93586415 C-1064.72664166 331.18459711 -1071.85860116 323.68109889 -1079.0703125 316.2421875 C-1079.78800514 315.50096931 -1080.50569778 314.75975113 -1081.24513867 313.99607179 C-1113.34060758 280.93927301 -1147.92014821 250.86466966 -1183.69936772 221.8888676 C-1196.78285624 211.28998073 -1209.76111984 200.56507663 -1222.66278672 189.74573302 C-1225.58898455 187.29197022 -1228.52368828 184.84902089 -1231.46586013 182.41443849 C-1261.38708706 157.60582585 -1288.98449482 134.44158457 -1293.07616903 93.76664589 C-1295.83635759 62.7596862 -1291.85631176 31.23516728 -1285 1 C-1241.96345246 -7.42131195 -1183.71938318 -16.62482734 -1144.75728533 9.00314951 C-1127.16966331 21.00242069 -1111.77294426 35.80520056 -1096.8203125 50.875 C-1096.19988347 51.49894087 -1095.57945444 52.12288174 -1094.94022453 52.7657299 C-1078.91883708 68.90586457 -1063.55101536 85.61235375 -1048.37752414 102.54712296 C-1039.56395363 112.37163941 -1030.58873715 122.02641232 -1021.49072266 131.58789062 C-1020.84279082 132.26892562 -1020.19485899 132.94996061 -1019.52729286 133.65163302 C-1016.2732918 137.07016658 -1013.01656901 140.48609293 -1009.75848794 143.90073776 C-983.07206533 171.87650975 -956.87659831 200.27464385 -931 229 C-927.69654982 227.60497318 -926.04205597 226.1149084 -923.94756222 223.22437859 C-923.36629497 222.43315353 -922.78502772 221.64192848 -922.18614632 220.82672691 C-921.23971045 219.5164273 -921.23971045 219.5164273 -920.27415466 218.17965698 C-918.85655744 216.2549564 -917.43746092 214.33135947 -916.01711082 212.4086895 C-914.87463768 210.85726741 -914.87463768 210.85726741 -913.70908427 209.27450347 C-889.78090149 176.86713703 -864.01879191 146.00829268 -837.25271022 115.91622102 C-836.0447843 114.55789692 -834.83786446 113.19867745 -833.63196385 111.83855498 C-772.32614152 42.69889734 -713.07555191 -7.7741678 -617.73833425 -13.532869 C-583.89463348 -15.42082942 -550.19676568 -14.9607896 -516.35699445 -13.27363813 C-513.36598739 -13.12455076 -510.37480588 -12.97943073 -507.3835845 -12.83471394 C-456.02659706 -10.32220484 -404.97173837 -5.74593575 -354 1 C-353.99902319 1.78779282 -353.99804638 2.57558563 -353.99703997 3.38725096 C-353.93873044 50.10899237 -353.86490528 96.83068727 -353.77101372 143.55237142 C-353.75974596 149.16601757 -353.74860744 154.77966398 -353.73754883 160.39331055 C-353.7342433 162.06962937 -353.7342433 162.06962937 -353.730871 163.77981322 C-353.6955272 181.85978028 -353.6706466 199.9397473 -353.64965298 218.01973606 C-353.62786768 236.58028976 -353.59479135 255.14079874 -353.55129844 273.70131439 C-353.52482875 285.1482329 -353.5070989 296.59509573 -353.50065396 308.04204332 C-353.49538574 315.89844841 -353.47912073 323.75478351 -353.45433434 331.61115105 C-353.44036842 336.13951425 -353.4311301 340.66775231 -353.43499184 345.19613838 C-353.43842759 349.35122968 -353.42789196 353.50605471 -353.40676448 357.66109156 C-353.40154013 359.15528288 -353.40121523 360.64950218 -353.40660437 362.14369292 C-353.4389664 372.14381919 -352.27833384 381.28582813 -350 391 C-349.61920344 392.68890873 -349.61920344 392.68890873 -349.23071402 394.41193682 C-345.52072455 410.68964976 -339.86708272 425.29604777 -332 440 C-331.5771875 440.7940625 -331.154375 441.588125 -330.71875 442.40625 C-328.16322675 447.11253971 -325.40191169 451.54722917 -322.25 455.875 C-321.60430054 456.76880371 -321.60430054 456.76880371 -320.94555664 457.68066406 C-316.84637614 463.30248317 -312.51479189 468.70596467 -308 474 C-306.97519531 475.22783203 -306.97519531 475.22783203 -305.9296875 476.48046875 C-295.6542946 488.40523283 -283.33613784 497.76182831 -270 506 C-269.12625732 506.54116455 -269.12625732 506.54116455 -268.23486328 507.09326172 C-252.99993359 516.414718 -237.16669799 522.28337937 -220 527 C-218.80503906 527.33128906 -217.61007812 527.66257812 -216.37890625 528.00390625 C-207.35674796 530.38299767 -198.5898854 531.15622863 -189.27734375 531.203125 C-188.37359512 531.20882507 -187.4698465 531.21452515 -186.53871155 531.22039795 C-184.63527575 531.22978675 -182.73182415 531.23635736 -180.82836914 531.24023438 C-177.96926241 531.2498927 -175.11089041 531.28095583 -172.25195312 531.3125 C-161.1082873 531.37614321 -150.86378273 530.55150719 -140 528 C-138.94578857 527.76676025 -137.89157715 527.53352051 -136.80541992 527.29321289 C-122.35554227 524.02787484 -108.75936659 518.91346633 -95.7265625 511.91992188 C-94.21583587 511.11499852 -92.68731409 510.34365704 -91.15625 509.578125 C-77.32556883 502.4961497 -65.06784415 492.82116114 -54 482 C-53.22527344 481.27554687 -52.45054688 480.55109375 -51.65234375 479.8046875 C-40.9968543 469.61901681 -32.62590796 457.54335229 -25 445 C-24.64808594 444.43313477 -24.29617188 443.86626953 -23.93359375 443.28222656 C-16.44271408 431.16828555 -11.85129648 418.40859629 -7.859375 404.76953125 C-7 402 -7 402 -5.98828125 399.69921875 C-4.58837824 395.87576824 -4.04468492 392.01577327 -3.4375 388 C-3.31181641 387.22527344 -3.18613281 386.45054687 -3.05664062 385.65234375 C-1.19582425 373.66907597 -0.84961685 361.68784054 -0.84178162 349.57987976 C-0.83720459 348.06310661 -0.83220294 346.5463347 -0.82681805 345.0295642 C-0.81335725 340.897364 -0.80585398 336.76517193 -0.79939139 332.63295567 C-0.79133384 328.16346682 -0.77765479 323.69399461 -0.76467896 319.22451782 C-0.74299162 311.49268304 -0.72481911 303.7608465 -0.70907402 296.02899742 C-0.68630448 284.85021618 -0.65817173 273.67145341 -0.62875474 262.49268792 C-0.58116535 244.35328776 -0.53787789 226.21388002 -0.49731445 208.07446289 C-0.45791538 190.45987355 -0.41646761 172.84529098 -0.37231445 155.23071289 C-0.36956495 154.13280825 -0.36681544 153.03490362 -0.36398262 151.90372914 C-0.34246186 143.31664078 -0.32082276 134.72955272 -0.29914629 126.14246476 C-0.19303571 84.09499017 -0.09724117 42.04749784 0 0 Z " fill="#FCFCFC" transform="translate(1514,604)"/>
<path d="M0 0 C29.04 0 58.08 0 88 0 C88.08838585 42.07302368 88.16216354 84.14595892 88.20426132 126.21904905 C88.20926341 131.20006932 88.21444077 136.1810894 88.21972656 141.16210938 C88.22130043 142.64939034 88.22130043 142.64939034 88.22290608 144.16671738 C88.24025291 160.16541845 88.27175861 176.1640613 88.30861118 192.16272798 C88.34618067 208.61132006 88.36826946 225.05988191 88.37635398 241.50851512 C88.38180878 251.63648726 88.39895833 261.76429478 88.43166587 271.89221618 C88.45301205 278.8623858 88.45915528 285.83247186 88.45400551 292.8026717 C88.45147452 296.80817997 88.45500708 300.81340317 88.4768219 304.8188591 C88.57703719 324.19398686 87.32467815 342.86137319 84 362 C83.64316015 364.14042655 83.28728316 366.28101388 82.9324379 368.421772 C81.30143648 378.22865631 79.18247494 387.57080955 76 397 C75.37778186 398.98451189 74.7597187 400.97032864 74.14453125 402.95703125 C73.45073861 405.17975549 72.75672548 407.40241091 72.0625 409.625 C71.57668457 411.19954956 71.57668457 411.19954956 71.08105469 412.8059082 C68.8659637 419.80698152 66.16606148 426.37956387 63 433 C62.15214952 434.82412849 61.30449476 436.64834795 60.45703125 438.47265625 C51.91795681 456.60213854 42.77487137 473.75834241 31 490 C30.59894043 490.55413574 30.19788086 491.10827148 29.78466797 491.67919922 C13.72764104 513.73318543 -5.20444361 535.42763907 -27 552 C-28.06867913 552.83469606 -29.13633419 553.67070441 -30.203125 554.5078125 C-54.45512719 573.46376689 -81.24306356 588.9470546 -110 600 C-111.62543955 600.68646014 -113.25049867 601.37382251 -114.875 602.0625 C-128.22579019 607.37533589 -142.74148397 612.14019356 -157 614 C-157.33 614.33 -157.66 614.66 -158 615 C-160.02502328 615.34787649 -162.06014699 615.63721484 -164.09765625 615.90234375 C-166.01481445 616.15467773 -166.01481445 616.15467773 -167.97070312 616.41210938 C-169.33462692 616.5873057 -170.69855924 616.76243574 -172.0625 616.9375 C-173.35478516 617.10701172 -174.64707031 617.27652344 -175.97851562 617.45117188 C-178.63659043 617.7984514 -181.29489952 618.14054379 -183.9543457 618.47680664 C-186.6168549 618.8152785 -189.26962585 619.18369827 -191.92651367 619.56811523 C-201.2839291 620.87451708 -210.42917452 621.28282363 -219.8737793 621.20581055 C-222.19656328 621.18742827 -224.51894717 621.1853029 -226.84179688 621.18554688 C-238.09823849 621.15937223 -249.26524622 620.94804994 -260.30078125 618.53125 C-263.54206147 617.89331352 -266.78516954 617.47691481 -270.0625 617.0625 C-286.67962467 614.87123081 -302.03690901 611.15871382 -318 606 C-319.45960343 605.53635761 -320.91923566 605.07280589 -322.37890625 604.609375 C-363.56548241 591.37046557 -401.22655579 567.81614307 -432.55078125 538.2265625 C-435.0998435 535.82494399 -437.69578553 533.50674352 -440.375 531.25 C-445.0219943 527.23124742 -448.97834947 522.63156909 -453 518 C-453.93864983 516.93606357 -454.8774588 515.87226753 -455.81640625 514.80859375 C-466.5357304 502.57786432 -476.28672178 489.71358389 -484.83300781 475.87207031 C-486.08326346 473.86643007 -487.36467099 471.88277637 -488.6484375 469.8984375 C-497.9016893 455.41069384 -504.7115249 439.96451763 -511 424 C-511.4434375 422.89011719 -511.886875 421.78023437 -512.34375 420.63671875 C-515.26515046 413.18517365 -517.75870208 405.68186788 -520 398 C-520.3403125 396.84242188 -520.680625 395.68484375 -521.03125 394.4921875 C-522.04439432 390.99990973 -523.04567101 387.50888265 -524 384 C-524.23557617 383.1435791 -524.47115234 382.2871582 -524.71386719 381.40478516 C-526.80178456 373.49939813 -528.06243936 365.60096229 -529.125 357.5 C-529.29386719 356.27152344 -529.46273438 355.04304688 -529.63671875 353.77734375 C-531.29131348 341.49165218 -532.14916828 329.42741537 -532.12025452 317.02886963 C-532.1206916 315.65732864 -532.12156902 314.28578774 -532.12284368 312.91424727 C-532.12506176 309.17882923 -532.12110452 305.44344028 -532.11606562 301.70802593 C-532.11172238 297.66729934 -532.11321028 293.62657422 -532.1139679 289.58584595 C-532.11449069 282.59608831 -532.11136953 275.60634005 -532.10573006 268.61658478 C-532.0975818 258.51073657 -532.09499643 248.40489286 -532.09374207 238.29904172 C-532.09155677 221.90053045 -532.08491084 205.50202418 -532.07543945 189.10351562 C-532.06625183 173.17968775 -532.0591776 157.25586124 -532.05493164 141.33203125 C-532.05466892 140.34947539 -532.05440619 139.36691953 -532.05413551 138.35458925 C-532.05283041 133.42509336 -532.05156672 128.49559746 -532.05032361 123.56610155 C-532.03996725 82.71072993 -532.0215377 41.85536755 -532 1 C-502.96 1 -473.92 1 -444 1 C-443.98541748 10.83135742 -443.97083496 20.66271484 -443.95581055 30.79199219 C-443.90697612 62.30618426 -443.84354578 93.82033199 -443.77101372 125.33447807 C-443.75974656 130.23568044 -443.74860794 135.13688309 -443.73754883 140.03808594 C-443.73534514 141.01376137 -443.73314146 141.98943681 -443.730871 142.99467817 C-443.69557025 158.75948317 -443.67066544 174.52428812 -443.64965298 190.2891179 C-443.62783323 206.48458365 -443.59472461 222.67999845 -443.55129844 238.87542081 C-443.52488772 248.85594903 -443.50711461 258.83641386 -443.50065396 268.81697527 C-443.49536751 275.67591226 -443.47904247 282.53476972 -443.45433434 289.39366397 C-443.44042994 293.34139979 -443.43110651 297.28899359 -443.43499184 301.23675537 C-443.44759321 317.36813547 -443.1970161 333.13115273 -440 349 C-439.84593953 349.78665338 -439.69187905 350.57330676 -439.53315008 351.38379812 C-432.26345726 388.27026089 -416.27275512 423.20627965 -392 452 C-391.5447998 452.54398438 -391.08959961 453.08796875 -390.62060547 453.6484375 C-381.49377532 464.53762853 -372.15996733 474.14335482 -361 483 C-360.10410156 483.74765625 -359.20820312 484.4953125 -358.28515625 485.265625 C-327.47698967 510.24298421 -287.63029603 526.851959 -248 530 C-246.54557495 530.13378052 -246.54557495 530.13378052 -245.06176758 530.27026367 C-236.43718374 531.01979604 -227.83908279 531.20241432 -219.1875 531.1875 C-218.12743744 531.18609512 -218.12743744 531.18609512 -217.04595947 531.18466187 C-206.89280905 531.15552492 -197.00522011 530.95349856 -187 529 C-185.86498047 528.78996338 -185.86498047 528.78996338 -184.70703125 528.57568359 C-140.07955906 520.14235241 -100.71992155 500.44588898 -68 469 C-67.45456543 468.48179687 -66.90913086 467.96359375 -66.34716797 467.4296875 C-54.51727039 456.15187496 -44.74513896 443.81731956 -36 430 C-35.50242187 429.21753906 -35.00484375 428.43507813 -34.4921875 427.62890625 C-27.74127505 416.69095248 -21.26513215 405.14916429 -17 393 C-16.73445313 392.2471875 -16.46890625 391.494375 -16.1953125 390.71875 C-14.64548483 386.32094841 -13.10924715 381.91877009 -11.5859375 377.51171875 C-10.75556955 375.11075113 -9.9048524 372.77628379 -8.91015625 370.4375 C0.16646106 346.129306 -0.54143839 317.28700009 -0.56726015 291.75945115 C-0.56789573 287.82664253 -0.55115678 283.89389763 -0.53674316 279.96112061 C-0.51416823 273.18005239 -0.50210908 266.39903479 -0.49761391 259.61793137 C-0.49109914 249.8141378 -0.46806982 240.01043495 -0.44127061 230.20667835 C-0.39820606 214.2929091 -0.36812393 198.37914373 -0.34643555 182.46533203 C-0.32536442 167.02520858 -0.29803639 151.58511665 -0.26245117 136.14501953 C-0.26025235 135.19003777 -0.25805352 134.235056 -0.25578807 133.25113539 C-0.24471689 128.45930071 -0.23352437 123.66746631 -0.22227156 118.87563205 C-0.12937497 79.25044049 -0.0600775 39.62525757 0 0 Z " fill="#020403" transform="translate(1559,649)"/>
<path d="M0 0 C21.18039829 -4.98443676 48.58112154 -8.87971832 68.49511337 2.37044907 C92.13579408 17.07776265 111.46432123 39.74682737 130.43131092 59.80489352 C138.74202435 68.58026823 147.23857427 77.16638204 155.74797863 85.74848646 C170.90955933 101.04920975 185.92351095 116.48642445 200.84716797 132.01904297 C215.32047065 147.08229332 229.86134074 162.07492194 244.49658203 176.98095703 C245.40274936 177.90393866 246.30891669 178.8269203 247.24254364 179.77787107 C251.79018245 184.40904885 256.33916466 189.0389044 260.88881588 193.66810513 C298.46956283 231.909404 335.81225346 270.37667969 373 309 C371.65596108 312.1320085 370.36196616 313.72016108 367.58653164 315.6696558 C361.05419678 320.75048326 355.98647701 325.59507464 354.60821724 334.03297234 C353.98417583 340.82538606 354.04147764 347.61350312 354.17447269 354.42753732 C354.2274579 358.00006249 354.19266979 361.5719462 354.16912842 365.14463806 C354.14018779 371.31830491 354.16551169 377.48977648 354.22885323 383.66316032 C354.32034707 392.58813951 354.32820476 401.51169376 354.31636583 410.43706317 C354.29939299 424.92097622 354.34903329 439.40385111 354.44116211 453.88745117 C354.53045421 467.94772931 354.58800244 482.00755346 354.60327148 496.06811523 C354.60422534 496.93637709 354.6051792 497.80463895 354.60616196 498.69921177 C354.61075323 503.05550067 354.61472476 507.41178987 354.6183883 511.76807964 C354.64952935 547.84618258 354.80140502 583.92235398 355 620 C325.63 620 296.26 620 266 620 C267.35746338 612.5119165 268.71492676 605.02383301 270.11352539 597.30883789 C276.00245636 562.57387339 279.6236377 527.6950263 281.90108222 492.54636699 C282.06202734 490.06977326 282.22761291 487.59351581 282.39323282 485.11723089 C287.72524714 403.98754778 280.03522034 334.67752707 225.10819044 271.58010583 C186.52162066 227.82185594 143.09275603 188.8752867 98.92756367 150.89303613 C95.02136166 147.53303662 91.12563382 144.16116566 87.2333027 140.78511488 C83.42224355 137.48108739 79.60506059 134.18418642 75.78579712 130.88964844 C75.04054672 130.24625771 74.29529632 129.60286698 73.52746257 128.93997957 C64.79257297 121.41278658 55.94584946 114.08567798 46.84625928 107.00331206 C39.20894504 101.05544045 31.68537345 94.98585517 24.31030273 88.71508789 C23.68494955 88.18402983 23.05959637 87.65297177 22.4152931 87.10582104 C8.33693374 75.02071203 -1.88042602 63.97494885 -3.55612183 44.87911987 C-4.62354705 29.84759833 -2.88530919 14.74510172 0 0 Z " fill="#030504" transform="translate(273,650)"/>
<path d="M0 0 C0.74548467 0.05343873 1.49096933 0.10687746 2.25904445 0.16193554 C17.51753957 1.30176591 32.56249956 3.49191892 47.75679016 5.47259521 C47.75679016 34.84259521 47.75679016 64.21259521 47.75679016 94.47259521 C40.64656311 93.4361084 33.53633606 92.39962158 26.21064758 91.33172607 C-14.84382185 86.77436945 -57.50114076 83.876304 -91.36392188 110.77889752 C-101.55562628 119.05376253 -111.0167097 128.03504436 -120.25492859 137.35150146 C-121.03415168 138.13549062 -121.03415168 138.13549062 -121.82911664 138.93531793 C-135.20568164 152.41903286 -147.98875484 166.41022091 -160.59425461 180.61260641 C-167.91287464 188.8472839 -175.37856465 196.92691892 -182.9563446 204.92352295 C-183.49664756 205.49377638 -184.03695051 206.06402981 -184.59362628 206.65156365 C-187.30740098 209.51421051 -190.02364846 212.374497 -192.74113023 215.23362458 C-214.97099238 238.62851088 -236.74524981 262.40267291 -258.24320984 286.47259521 C-261.13573669 285.08626005 -263.08417815 283.84193403 -265.23930359 281.45306396 C-265.7915863 280.84921875 -266.34386902 280.24537354 -266.91288757 279.62322998 C-267.78795959 278.65147827 -267.78795959 278.65147827 -268.68070984 277.66009521 C-273.40412127 272.49828146 -278.19751898 267.44681634 -283.18070984 262.53509521 C-286.44043009 259.3146314 -289.6580877 256.1000298 -292.61820984 252.59759521 C-296.69872812 247.77889273 -301.26011931 243.42873842 -305.7454071 238.99212646 C-309.69613054 235.06864939 -313.49838055 231.09230947 -317.04399109 226.79290771 C-318.22788981 225.3296693 -318.22788981 225.3296693 -320.24320984 224.47259521 C-318.86310007 221.44167667 -317.25186258 219.1247539 -315.06116962 216.62266922 C-314.40137901 215.86577498 -313.74158839 215.10888073 -313.06180412 214.3290503 C-312.33407599 213.50414778 -311.60634787 212.67924527 -310.85656738 211.8293457 C-309.69686913 210.50727352 -309.69686913 210.50727352 -308.51374263 209.1584928 C-306.36293345 206.71218715 -304.2072748 204.27029311 -302.04785192 201.83158994 C-300.66521601 200.26990465 -299.28405059 198.70692782 -297.90298462 197.14385414 C-280.16557551 177.08567292 -261.98809831 157.44710816 -243.61745166 137.96853746 C-240.58505635 134.75276668 -237.55603176 131.53383946 -234.52909851 128.31292725 C-233.62573506 127.35184699 -233.62573506 127.35184699 -232.70412185 126.37135097 C-224.30688464 117.42314957 -216.11784835 108.32078027 -208.07186614 99.05591506 C-194.16024305 83.03698935 -179.90938517 67.413335 -164.95024109 52.36322021 C-164.07586976 51.48117633 -164.07586976 51.48117633 -163.18383437 50.58131337 C-114.33613957 1.46965756 -67.37984537 -4.84396437 0 0 Z " fill="#030504" transform="translate(934.2432098388672,644.5274047851563)"/>
<path d="M0 0 C5.05938552 0.52776315 10.04002994 0.64319218 15.12304688 0.61132812 C16.43358536 0.6092057 16.43358536 0.6092057 17.77059937 0.60704041 C20.52093141 0.60150862 23.27117755 0.58896962 26.02148438 0.57617188 C27.9029936 0.57114803 29.78450413 0.56658669 31.66601562 0.5625 C36.24287089 0.55156167 40.81966315 0.53434549 45.39648438 0.51367188 C45.39648438 0.84367187 45.39648438 1.17367188 45.39648438 1.51367188 C36.19303282 2.50285421 27.06794111 2.66895542 17.82446289 2.64404297 C15.46624298 2.63868836 13.10821413 2.64401774 10.75 2.65039062 C1.91216922 2.65386257 -6.80028187 2.36801467 -15.60351562 1.51367188 C-15.60351562 1.18367188 -15.60351562 0.85367187 -15.60351562 0.51367188 C-13.98008249 0.31305751 -12.35459214 0.12909437 -10.72851562 -0.04882812 C-9.82359375 -0.15324219 -8.91867187 -0.25765625 -7.98632812 -0.36523438 C-5.18644453 -0.46546115 -2.76422828 -0.32205546 0 0 Z " fill="#5F6060" transform="translate(1321.603515625,1267.486328125)"/>
<path d="M0 0 C0.33 0.66 0.66 1.32 1 2 C-1.78999451 5.48749314 -4.25235831 8.50157221 -8 11 C-8.66 10.67 -9.32 10.34 -10 10 C-6.7 6.7 -3.4 3.4 0 0 Z " fill="#383A39" transform="translate(1496,1113)"/>
<path d="M0 0 C0 0.99 0 1.98 0 3 C-0.639375 3.2475 -1.27875 3.495 -1.9375 3.75 C-4.18741541 4.81562433 -4.18741541 4.81562433 -4.75 7.125 C-4.8325 7.74375 -4.915 8.3625 -5 9 C-8 9 -8 9 -10 8 C-6.7 5.36 -3.4 2.72 0 0 Z " fill="#222423" transform="translate(1562,1233)"/>
<path d="M0 0 C0.66 0.99 1.32 1.98 2 3 C-3.89285714 8.22321429 -3.89285714 8.22321429 -8 9 C-7.04270084 7.87411986 -6.08412105 6.7493285 -5.125 5.625 C-4.59132813 4.99851562 -4.05765625 4.37203125 -3.5078125 3.7265625 C-2.38567993 2.44163349 -1.20628025 1.20628025 0 0 Z " fill="#232524" transform="translate(630,851)"/>
<path d="M0 0 C0.66 0.99 1.32 1.98 2 3 C-3.89285714 8.22321429 -3.89285714 8.22321429 -8 9 C-7.04270084 7.87411986 -6.08412105 6.7493285 -5.125 5.625 C-4.59132813 4.99851562 -4.05765625 4.37203125 -3.5078125 3.7265625 C-2.38567993 2.44163349 -1.20628025 1.20628025 0 0 Z " fill="#232524" transform="translate(662,819)"/>
<path d="M0 0 C0.66 0.99 1.32 1.98 2 3 C-3.89285714 8.22321429 -3.89285714 8.22321429 -8 9 C-7.04270084 7.87411986 -6.08412105 6.7493285 -5.125 5.625 C-4.59132813 4.99851562 -4.05765625 4.37203125 -3.5078125 3.7265625 C-2.38567993 2.44163349 -1.20628025 1.20628025 0 0 Z " fill="#232524" transform="translate(694,787)"/>
<path d="M0 0 C0.66 0.99 1.32 1.98 2 3 C-3.89285714 8.22321429 -3.89285714 8.22321429 -8 9 C-7.04270084 7.87411986 -6.08412105 6.7493285 -5.125 5.625 C-4.59132813 4.99851562 -4.05765625 4.37203125 -3.5078125 3.7265625 C-2.38567993 2.44163349 -1.20628025 1.20628025 0 0 Z " fill="#232524" transform="translate(726,755)"/>
<path d="M0 0 C0.66 0.99 1.32 1.98 2 3 C-3.89285714 8.22321429 -3.89285714 8.22321429 -8 9 C-7.04270084 7.87411986 -6.08412105 6.7493285 -5.125 5.625 C-4.59132813 4.99851562 -4.05765625 4.37203125 -3.5078125 3.7265625 C-2.38567993 2.44163349 -1.20628025 1.20628025 0 0 Z " fill="#232524" transform="translate(758,723)"/>
<path d="M0 0 C0.66 0.99 1.32 1.98 2 3 C-3.89285714 8.22321429 -3.89285714 8.22321429 -8 9 C-7.04270084 7.87411986 -6.08412105 6.7493285 -5.125 5.625 C-4.59132813 4.99851562 -4.05765625 4.37203125 -3.5078125 3.7265625 C-2.38567993 2.44163349 -1.20628025 1.20628025 0 0 Z " fill="#232524" transform="translate(790,691)"/>
<path d="M0 0 C0.66 0.99 1.32 1.98 2 3 C-3.89285714 8.22321429 -3.89285714 8.22321429 -8 9 C-7.04270084 7.87411986 -6.08412105 6.7493285 -5.125 5.625 C-4.59132813 4.99851562 -4.05765625 4.37203125 -3.5078125 3.7265625 C-2.38567993 2.44163349 -1.20628025 1.20628025 0 0 Z " fill="#232524" transform="translate(822,659)"/>
<path d="M0 0 C-0.66 1.65 -1.32 3.3 -2 5 C-2.99 5 -3.98 5 -5 5 C-5.33 4.01 -5.66 3.02 -6 2 C-2.25 0 -2.25 0 0 0 Z " fill="#161817" transform="translate(1490,1280)"/>
<path d="M0 0 C0.33 0.66 0.66 1.32 1 2 C1.66 2.33 2.32 2.66 3 3 C2.34 3 1.68 3 1 3 C0.896875 3.639375 0.79375 4.27875 0.6875 4.9375 C0.460625 5.618125 0.23375 6.29875 0 7 C-0.99 7.33 -1.98 7.66 -3 8 C-1.125 2.25 -1.125 2.25 0 0 Z " fill="#2B2D2C" transform="translate(1657,1111)"/>
</svg>
